<svg xmlns="http://www.w3.org/2000/svg" viewBox="0 0 501.86519 501.8652">
  <defs>
    <style>
      .\32 830f772-44ee-4e52-bb96-69842e2b74d4 {
        fill: #fff;
      }
    </style>
  </defs>
  <g id="29f1d6d8-28f0-4c09-80b3-5fe1f5c509d8" data-name="Layer 2">
    <g id="66094458-7c24-463f-957a-69fb788637e5" data-name="Layer 2">
      <g id="a92366f9-0881-42c7-ac94-8cdcfdad23e3" data-name="&lt;Group&gt;">
        <path id="d1a873a9-25eb-40de-96ef-65042e53feca" data-name="&lt;Path&gt;" class="2830f772-44ee-4e52-bb96-69842e2b74d4" d="M151.6127,362.5398c1.0524.7507,2.3303,1.6621,3.7962,2.7073.7175.5373,1.5312,1.0456,2.3802,1.5891q1.26915.81555,2.6642,1.7119a145.53,145.53,0,0,0,28.6956,13.9814c2.7373.9046,5.4122,1.9138,8.1479,2.6214q2.025.5793,4.01229,1.1484,2.00895.468,3.96352.9233c1.30338.284,2.55748.6397,3.82388.8514q1.8879.3387,3.6888.6616c2.3764.4853,4.668.7234,6.7598.9988,1.04752.1306,2.045.2751,2.9986.3801.9587.0727,1.868.1416,2.7225.2063,1.70042.1291,3.1828.2419,4.4035.3345,2.4475.062,3.8462.0971,3.8462.0971s-1.4665-.1848-4.0329-.5085c-1.2722-.2288-2.817-.5064-4.5889-.825-.8836-.1704-1.836-.2939-2.8184-.5261q-1.475-.34275-3.0959-.719a139.0654,139.0654,0,0,1-30.50709-10.9297,143.78652,143.78652,0,0,1-27.22909-17.6472c-1.67671-1.4529-3.21371-2.7849-4.57611-3.9656-1.342-1.2029-2.4483-2.3217-3.395-3.2038-.9318-.8982-1.6882-1.5796-2.1666-2.0816-.47729-.5029-.7318-.7712-.7318-.7712-2.0291-2.1367-5.8087-1.9546-8.428.3933l-19.16849,17.4221a6.402,6.402,0,0,0,.006,9.2393s1.20119,1.3083,3.47209,3.4292c1.12591,1.0696,2.493,2.3686,4.0612,3.8589,1.63471,1.417,3.479,3.0156,5.4909,4.7595.9906.8906,2.105,1.7187,3.2266,2.6145q1.69382,1.32975,3.4965,2.7449c1.1819.966,2.4934,1.8293,3.7884,2.7722q1.95975,1.3908,3.9988,2.8381c1.3837.9251,2.8187,1.824,4.258,2.7537q1.08255.6921,2.1777,1.3928l1.098.7007,1.1327.6553c3.04311,1.7224,6.0694,3.591,9.2656,5.1506q2.3733,1.21245,4.7402,2.4224,2.4168,1.09965,4.8082,2.1879c3.1628,1.5005,6.39311,2.7022,9.4906,3.9312.778.2978,1.5393.6208,2.3124.8892q1.16235.3954,2.3016.7832,2.27955.7701,4.4537,1.5046c1.4386.5168,2.88349.8728,4.26149,1.281q2.07435.58815,4.0017,1.1343c1.2775.3843,2.5234.667,3.7079.938q1.7757.4101,3.362.7768c1.05572.242,2.0438.4683,2.9574.6775.9184.1848,1.7679.325,2.5322.4666,3.0613.5461,4.8105.8581,4.8105.8581a6.56107,6.56107,0,0,0,5.0404-1.1509,6.08173,6.08173,0,0,0,2.5219-4.2192l2.86832-23.1782s-1.46462-.1851-4.02792-.5088c-1.2715-.2249-2.8156-.4978-4.5867-.811q-1.32825-.236-2.8212-.5008c-.9865-.209-2.0167-.4631-3.0958-.708-2.1549-.5036-4.505-.9897-6.9303-1.737q-1.82985-.519-3.7539-1.0643c-1.2853-.3491-2.555-.8447-3.8708-1.2702q-1.96455-.6669-3.9892-1.3543-1.98615-.7848-4.01509-1.5861c-2.7297-1.0005-5.382-2.3042-8.0804-3.4986a149.10676,149.10676,0,0,1-27.6468-16.9118q-1.3062-1.02615-2.4992-1.9637c-.795-.622-1.5558-1.2041-2.2226-1.8095-1.3603-1.1785-2.5462-2.2061-3.5229-3.0523-.9919-.8293-1.7216-1.5356-2.2188-2.0176-.5007-.478-.7677-.7331-.7677-.7331s.2907.2295.8358.6596C149.7483,361.1687,150.5422,361.8037,151.6127,362.5398Z"/>
        <path id="3d7e46b2-97b8-4b01-9ea7-de7f00cd53cf" data-name="&lt;Path&gt;" class="2830f772-44ee-4e52-bb96-69842e2b74d4" d="M138.2078,338.4631a5.33981,5.33981,0,0,0-.83419-4.1665s-.80781-1.1367-2.22151-3.126c-.3499-.4997-.7572-1.0395-1.1654-1.6508q-.59355-.92955-1.2806-2.0061-.68835-1.07235-1.462-2.2779-.38745-.6006-.7943-1.2319-.3729-.65115-.7626-1.3318a141.63988,141.63988,0,0,1-12.6325-27.8511l-.674-1.9765-.5653-2.0059q-.56985-2.001-1.1335-3.9812c-.3842-1.3159-.62829-2.6572-.9485-3.9619-.2941-1.311-.6205-2.5984-.8837-3.8772-.431-2.5767-.9424-5.051-1.28309-7.4219-.28451-2.3794-.60871-4.6218-.83021-6.7016-.1581-2.0872-.3031-4.0003-.4315-5.6961-.0846-.8464-.0997-1.6435-.1119-2.3804-.0177-.7365-.034-1.413-.0487-2.0241-.0656-2.4441-.1031-3.8408-.1031-3.8408.0787-2.95-2.71159-5.4666-6.2273-5.6211l-25.885-.961a6.47605,6.47605,0,0,0-6.5296,6.5974s.0454,1.8794.1249,5.1682c.00941,3.2903.3762,7.9834.8629,13.607.3606,2.801.7097,5.842,1.1779,9.0437q.42495,2.391.8717,4.9053c.3082,1.6716.57491,3.3889,1.0033,5.1042.8052,3.4402,1.5467,7.0181,2.62861,10.5701.51489,1.7822.99929,3.5893,1.55709,5.3813q.90075,2.6682,1.8063,5.3501a177.17173,177.17173,0,0,0,18.0552,37.1965q1.14495,1.782,2.1905,3.4097c.6891,1.0874,1.4334,2.0571,2.0855,3.0007,1.3341,1.8665,2.497,3.4939,3.4549,4.834,2.0329,2.5916,3.19451,4.0725,3.19451,4.0725s-.98-1.4748-2.69511-4.0559c-.8363-1.3022-1.7797-2.9343-2.8915-4.7751q-.82515-1.38435-1.7527-2.9397-.8574-1.592-1.7999-3.3418-.93075-1.745-1.93579-3.6296c-.67641-1.2469-1.26271-2.6019-1.92281-3.9559q-.9645-2.0415-1.9785-4.1879c-.6432-1.4427-1.2411-2.9454-1.8763-4.4544-.6138-1.5198-1.2947-3.0332-1.8701-4.6162q-.8529-2.373-1.7242-4.7974-.43095-1.20735-.86509-2.4238-.38071-1.23525-.76341-2.4768-.75225-2.47815-1.5084-4.969a173.358,173.358,0,0,1-6.2161-37.1684c-.10409-2.5516-.2419-4.8775-.2776-6.9415.01251-2.0632.02351-3.862.0324-5.3432-.01589-2.9534.1225-4.6375.1225-4.6375s.001,1.6807.2599,4.6118c.112,1.4661.2481,3.2464.4042,5.2884.2037,2.0376.5303,4.3274.8386,6.8298a171.09331,171.09331,0,0,0,9.0147,35.8052q.92475,2.34735,1.8471,4.6885.46455,1.167.927,2.3291.5139,1.14,1.0245,2.2719,1.0236,2.26245,2.0283,4.4829c.6734,1.4761,1.4488,2.8809,2.1531,4.2908.7258,1.3992,1.4103,2.791,2.13621,4.1228q1.13323,1.97355,2.21429,3.8557c.7345,1.2439,1.391,2.4893,2.1333,3.6282q1.09965,1.7172,2.12141,3.3125,1.02464,1.5894,1.96039,3.0408.99765,1.4055,1.8889,2.6609c1.1948,1.664,2.2055,3.1377,3.0953,4.3081,1.8163,2.3135,2.8542,3.6355,2.8542,3.6355l18.2776-14.5391A7.0503,7.0503,0,0,0,138.2078,338.4631Z"/>
        <path id="18ef8603-258e-4b6f-aa72-ee7c4418c9e8" data-name="&lt;Path&gt;" class="2830f772-44ee-4e52-bb96-69842e2b74d4" d="M248.11529,109.9941c2.9499-.1367,5.4101-2.8511,5.4947-6.3796l.4472-25.8992a6.35419,6.35419,0,0,0-6.7239-6.3552s-1.8793.0493-5.1679.1357c-1.643.0865-3.6361.2588-5.9229.4265-1.143.0901-2.3594.1858-3.6417.2867q-1.91565.2406-4.02118.5051a180.834,180.834,0,0,0-40.17851,9.8c-3.4971,1.4039-7.0491,2.68-10.4002,4.2762q-2.53215,1.152-5.0175,2.2829-2.42775,1.2408-4.7899,2.448c-3.1761,1.5515-6.0815,3.3513-8.8997,4.9429-1.4175.7834-2.7261,1.6597-4.0117,2.4753q-1.922,1.23375-3.7077,2.3799c-4.6643,3.1819-8.49279,5.9256-11.0465,8.0069-1.2941,1.0185-2.3109,1.819-3.0042,2.3647-.698.54-1.0514.8508-1.0514.8508s.3536-.2661,1.0504-.7224c.6912-.4612,1.7048-1.1372,2.99491-1.998q.96644-.6417,2.13419-1.4175c.7704-.5225,1.615-1.0701,2.548-1.6121,1.8443-1.1015,3.9251-2.3442,6.195-3.6997,2.3249-1.2422,4.8435-2.5881,7.5074-4.0115,2.7323-1.2888,5.5773-2.6904,8.5703-4.017a176.14164,176.14164,0,0,1,19.16711-7.0657c1.66189-.4905,3.29979-1.0339,4.96609-1.4688q2.502-.62805,4.9776-1.2497,1.2327-.3066,2.45459-.6109c.819-.1845,1.6434-.3344,2.4563-.5009q2.43813-.4824,4.8105-.9515c1.5677-.343,3.147-.5175,4.672-.7573q2.2887-.3336,4.472-.6516c2.9133-.3574,5.6807-.5683,8.2144-.822,1.2646-.1448,2.4922-.1609,3.651-.2227,1.15852-.0515,2.25752-.1001,3.2903-.1457,1.0299-.0442,1.9937-.0857,2.8849-.1238.8929.0042,1.713.0081,2.4538.0115,2.9536.0202,4.6414.032,4.6414.032l-4.6081.3498c-.7329.0569-1.5444.1199-2.4279.1887-.8795.1109-1.8307.2307-2.8471.3589-1.0162.1292-2.0977.2666-3.2376.4116-1.1386.1553-2.3428.2691-3.5808.5157-2.4802.4565-5.1807.8857-8.01038,1.4704q-2.11263.48675-4.33422.9983c-1.4747.3572-2.9995.6504-4.5083,1.1128q-2.27535.64605-4.6203,1.3113c-.7791.2266-1.5684.4365-2.3514.6809q-1.1661.3933-2.34309.7903-2.3523.7968-4.7355,1.6042c-1.5816.552-3.1308,1.211-4.7003,1.8145a171.50179,171.50179,0,0,0-17.9225,8.2898c-2.7699,1.5034-5.388,3.0664-7.8968,4.4995-2.4323,1.5593-4.7321,3.0337-6.8549,4.3945-2.0555,1.4602-3.93969,2.7986-5.6098,3.9849-.8437.5818-1.6037,1.1655-2.2954,1.7202q-1.04565.82065-1.9158,1.5039c-1.1559.9094-2.064,1.6238-2.6832,2.1111-.6241.4812-.9386.7598-.9386.7598l14.903,17.9821c2.2428,2.6682,5.9773,3.4026,8.2859,1.5733,0,0,.2738-.2163.787-.6214.4998-.4231,1.2989-.955,2.2905-1.666.9938-.708,2.2005-1.5679,3.58471-2.5542,1.42889-.9192,3.04119-1.9563,4.79989-3.0876.8673-.586,1.8133-1.1253,2.7948-1.6797q1.4652-.843,3.0249-1.7402c1.0239-.6238,2.1281-1.1673,3.2485-1.7378q1.6779-.861,3.4235-1.7569c1.1599-.6015,2.3943-1.0964,3.6118-1.6653,1.2297-.5412,2.4519-1.143,3.7218-1.6589q1.91372-.75255,3.85259-1.5154l1.9374-.7688,1.9772-.6709q1.9782-.6708,3.9511-1.3396c1.3101-.4568,2.6588-.771,3.9716-1.1638,1.3217-.3623,2.61892-.7754,3.9242-1.0935q1.9644-.4512,3.8759-.8904c2.5304-.6535,5.0359-1.0049,7.3885-1.4485q.88365-.16,1.7425-.3154c.5727-.1018,1.1452-.1504,1.7034-.227q1.67763-.2124,3.2362-.4097c1.0389-.1177,2.0269-.2962,2.9799-.3518.95132-.0708,1.8537-.1382,2.7017-.2012,1.6967-.115,3.1717-.2746,4.3932-.312C246.71849,110.0278,248.11529,109.9941,248.11529,109.9941Z"/>
        <path id="a0d34a42-38f5-4abe-a1ff-986f75cd5249" data-name="&lt;Path&gt;" class="2830f772-44ee-4e52-bb96-69842e2b74d4" d="M341.93529,132.791c-.7641-.4741-1.537-1.03-2.4205-1.5205q-1.30815-.75375-2.7458-1.5818a149.83583,149.83583,0,0,0-29.2183-12.8396q-2.0736-.5907-4.1418-1.1799c-1.3732-.3904-2.7257-.8096-4.1102-1.0962-2.7518-.6182-5.41108-1.3281-8.0566-1.7359q-1.96305-.3555-3.8553-.6982c-1.2588-.218-2.5119-.3347-3.7146-.5024q-1.804-.23445-3.5042-.4554c-1.133-.1272-2.2396-.1806-3.2912-.2714-4.2003-.4129-7.7204-.4036-10.1611-.4891-1.2188-.0595-2.185-.007-2.8407.0064-.6555.0166-1.0051.0254-1.0051.0254s.3688.0276,1.0604.0791c.6922.0461,1.7077.1118,2.9877.3015,1.283.1626,2.8411.3603,4.6282.5869.8977.0884,1.8367.281,2.8309.4575q1.491.2667,3.1298.5591a145.90708,145.90708,0,0,1,14.6913,3.6018c1.3356.365,2.6486.8799,4.0037,1.3176,1.342.4764,2.7322.8711,4.0785,1.4205,2.6913,1.0979,5.4834,2.0734,8.1451,3.3613,1.3415.6174,2.7006,1.1975,4.0263,1.8347q1.9638,1.00785,3.9069,2.0051.9708.4974,1.9331.9903.93615.5412,1.8624,1.0764,1.855,1.0641,3.66,2.0998c1.1833.7202,2.31542,1.4807,3.4427,2.1929,1.1116.7368,2.2494,1.3823,3.2698,2.1414q1.55265,1.1055,3.0156,2.1474c.97432.6929,1.9304,1.3428,2.78532,2.051,1.73348,1.3841,3.35948,2.6072,4.74588,3.7583,1.362,1.1809,2.5493,2.2107,3.52712,3.0584.48768.4253.93248.7947,1.30388,1.1333.36312.3476.6718.6435.92212.8835.50118.4793.76848.7347.76848.7347a5.11229,5.11229,0,0,0,4.07,1.2983,7.051,7.051,0,0,0,4.3263-2.0212l18.455-18.1761a6.07073,6.07073,0,0,0,1.81822-4.5742,6.90561,6.90561,0,0,0-2.18532-4.6655s-.3214-.3057-.9242-.8792c-.6009-.5756-1.4784-1.424-2.6654-2.4267-1.1742-1.0166-2.5999-2.2515-4.2353-3.6677-.8062-.722-1.71578-1.4278-2.6701-2.1775q-1.43115-1.125-3.0041-2.3616a178.54035,178.54035,0,0,0-33.2767-20.3262c-3.2413-1.4577-6.4532-2.9851-9.7347-4.2077q-2.443-.9588-4.8409-1.8999-2.436-.8274-4.80628-1.6321c-3.13992-1.1243-6.25112-1.9663-9.19072-2.7993-2.9255-.8887-5.7586-1.4642-8.3526-2.0789-1.3013-.2876-2.5395-.6084-3.7339-.8284-1.1954-.2151-2.3294-.4192-3.3951-.6108-2.1335-.3689-3.9869-.738-5.5261-.9502-3.0829-.3943-4.8445-.6199-4.8445-.6199a6.35948,6.35948,0,0,0-7.335,5.6509l-1.935,23.2747s.3682.0278,1.0586.0798c.69.0552,1.7057.1035,2.98432.2922,2.56008.344,6.23758.7068,10.58248,1.5713,1.0877.2036,2.2293.3748,3.3958.6243q1.7436.4035,3.5994.8332c1.23232.2979,2.5126.5479,3.7958.9021q1.92078.54645,3.9191,1.1153c2.6815.6902,5.3629,1.6911,8.1206,2.6023,1.3875.4331,2.73882.9995,4.10682,1.5366q2.05137.80715,4.11368,1.6189a153.50811,153.50811,0,0,1,28.2895,15.81q1.35423.9621,2.591,1.8404c.8327.5713,1.5559,1.2029,2.272,1.7473,1.4155,1.1113,2.6496,2.0803,3.6659,2.8782,1.9588,1.6855,3.0782,2.6486,3.0782,2.6486s-1.2078-.8554-3.3214-2.3525C344.77229,134.6145,343.451,133.7651,341.93529,132.791Z"/>
        <path id="25ca55a1-3e3a-421a-bfb7-a64c93970ca2" data-name="&lt;Path&gt;" class="2830f772-44ee-4e52-bb96-69842e2b74d4" d="M78.6991,232.8933l23.2314,2.4006s.18711-1.4643.5146-4.0271c.1879-1.2773.2968-2.8476.6568-4.6113.3156-1.7708.6716-3.7686,1.0601-5.948.4974-2.1567,1.0362-4.4932,1.6062-6.9644.6698-2.445,1.4059-5.0168,2.17541-7.6733q.66628-1.96515,1.35289-3.99c.464-1.3454.8832-2.7261,1.4493-4.0649,1.0849-2.6944,2.08381-5.4749,3.364-8.137q.91215-2.01675,1.8219-4.0283,1.0065-1.96215,2.0025-3.9038c1.2645-2.6184,2.7748-5.052,4.1335-7.4627.663-1.2158,1.4211-2.3474,2.13891-3.4697q1.07758-1.6824,2.10559-3.2876c1.411-2.1084,2.8481-4.0322,4.115-5.8486,1.3056-1.7886,2.6089-3.3487,3.705-4.7757,1.0846-1.4375,2.1326-2.6066,2.9795-3.5827,1.6911-1.9544,2.6574-3.0711,2.6574-3.0711s-.86049,1.2076-2.3663,3.3203c-.75219,1.0528-1.683,2.3128-2.6291,3.8492-.9576,1.5256-2.1009,3.1921-3.2262,5.0886-1.0867,1.9241-2.3232,3.957-3.5157,6.1692q-.8601,1.67655-1.7648,3.4394c-.6,1.1709-1.236,2.3494-1.77339,3.6094-1.10741,2.4993-2.352,5.0112-3.34041,7.6934q-.78555,1.9812-1.5817,3.9883-.6933,2.0397-1.3902,4.0898c-.9898,2.6953-1.6938,5.4922-2.4855,8.1865-.4196,1.3391-.6926,2.7156-1.0119,4.0532q-.46755,2.00475-.9226,3.9554c-.4865,2.6264-.9474,5.1538-1.3563,7.5449-.3092,2.4053-.6016,4.6797-.87139,6.779-.162,2.1031-.31051,4.031-.44221,5.74-.1766,1.6944-.1267,3.199-.1842,4.4192-.0679,2.4417-.10659,3.8372-.10659,3.8372s.18819-1.4663.51739-4.032c.1668-1.2822.3213-2.8474.67961-4.6128.34089-1.7673.62679-3.7815,1.10329-5.9443q.375-1.61865.7801-3.366c.2869-1.1584.4954-2.3794.8781-3.5903q.5208-1.83075,1.0684-3.7554.2706-.96165.5468-1.9439.3291-.965.6644-1.948.664-1.9668,1.3483-3.9943c.4611-1.3477,1.041-2.6704,1.5588-4.0281,1.0014-2.7315,2.2782-5.3977,3.48481-8.0935A141.83915,141.83915,0,0,1,140.5607,163.354c.6938-.8652,1.3193-1.7266,1.9816-2.4907q.99465-1.1448,1.8832-2.1678c1.1904-1.3532,2.1759-2.5805,3.09911-3.4902l2.80739-2.9438a5.38472,5.38472,0,0,0,1.4075-4.0135,7.03321,7.03321,0,0,0-1.94-4.3728L131.997,125.0596a6.0813,6.0813,0,0,0-4.531-1.9026,6.55911,6.55911,0,0,0-4.7362,2.0615s-1.2249,1.2847-3.3683,3.5329c-1.09389,1.1038-2.3202,2.5372-3.736,4.1731-1.4005,1.6487-3.0601,3.4424-4.67,5.5657a174.27523,174.27523,0,0,0-10.6564,14.7407q-1.3461,2.1036-2.7332,4.2718c-.879,1.4704-1.7306,2.9824-2.60629,4.4958-1.79991,3.0008-3.37151,6.1902-4.99291,9.3523a177.28063,177.28063,0,0,0-13.376,36.6563c-.5957,2.5984-1.1674,4.9755-1.6139,7.0942-.3824,2.1316-.7157,3.9897-.99019,5.5203-.58091,3.0561-.76331,4.8239-.76331,4.8239A6.40729,6.40729,0,0,0,78.6991,232.8933Z"/>
        <path id="c3138703-30e8-4a73-8acf-a00be1c8e0f7" data-name="&lt;Path&gt;" class="2830f772-44ee-4e52-bb96-69842e2b74d4" d="M422.46339,275.8293l-23.11578-3.3347-.13222,1.0527c-.1026.6841-.2973,1.6805-.5203,2.9524-.2262,1.2713-.5008,2.8152-.8158,4.586-.4046,1.7522-.861,3.7292-1.3589,5.8857a147.35413,147.35413,0,0,1-11.1517,30.4131c-1.3494,2.6252-2.6494,5.2771-4.1548,7.7656-.7309,1.2556-1.4278,2.5183-2.1639,3.7373q-1.15425,1.7982-2.2773,3.5476a144.89694,144.89694,0,0,1-8.8643,12.2564c-1.3294,1.7739-2.7245,3.2546-3.8861,4.6289-1.1778,1.3611-2.1889,2.5618-3.1056,3.4746-1.7834,1.8706-2.8025,2.9395-2.8025,2.9395s.917-1.1639,2.5216-3.2002c.8251-.9932,1.7229-2.2893,2.7662-3.7547,1.0271-1.4782,2.26662-3.072,3.4202-4.9609a142.21875,142.21875,0,0,0,7.5847-12.9209q.93345-1.81635,1.8953-3.688c.6056-1.2629,1.16842-2.5664,1.7628-3.8596,1.2324-2.5637,2.24862-5.2766,3.3093-7.9466a140.64843,140.64843,0,0,0,7.8417-30.2368c.2685-2.0893.51462-4.0044.7328-5.7021.1297-1.7036.2427-3.1892.3357-4.4124.0904-1.2197.1812-2.1718.2132-2.8254.0156-.6558.024-1.0054.024-1.0054s-.0456.3667-.131,1.0542c-.1217.6817-.30008,1.6814-.5273,2.9539-.2404,1.2698-.4746,2.8235-.8397,4.5854-.4047,1.7537-.8612,3.732-1.3593,5.8902-.564,2.1411-1.2569,4.4389-1.9312,6.8852-.3847,1.2085-.8239,2.4365-1.24458,3.7002-.44632,1.2549-.81652,2.5681-1.342,3.8494q-.76263,1.9314-1.54852,3.9216c-.2676.6602-.5049,1.3374-.79948,1.9949q-.44718.98355-.89852,1.9768-.89655,1.9878-1.8051,4.0019-1.00845,1.96335-2.0223,3.9371a139.21009,139.21009,0,0,1-18.2173,26.8479q-1.0881,1.25895-2.0816,2.4086c-.6524.7732-1.3508,1.4341-1.9628,2.0957-1.245,1.3038-2.33038,2.4405-3.2242,3.3765-1.8756,1.7842-2.9475,2.8037-2.9475,2.8037-2.0899,2.0803-2.1103,5.7219.2044,8.4094l17.0341,19.514a6.36776,6.36776,0,0,0,9.2579.2038s1.2837-1.2258,3.5302-3.3711c1.1054-1.0903,2.387-2.4751,3.8859-4.0346q1.1178-1.176,2.3741-2.4976,1.1949-1.373,2.508-2.8821,1.3062-1.51065,2.71672-3.1416c.93728-1.0869,1.82218-2.2805,2.77578-3.4709q1.41225-1.801,2.8971-3.6946,1.39845-1.95405,2.8536-3.9873a184.41571,184.41571,0,0,0,11.0748-17.6721,181.71259,181.71259,0,0,0,14.8186-36.0957c1.546-5.1075,2.4327-9.4659,3.1468-12.4927.3739-1.5105.534-2.7239.6975-3.5405.1471-.8199.2256-1.2571.2256-1.2571a6.90389,6.90389,0,0,0-.9962-5.0564A6.09129,6.09129,0,0,0,422.46339,275.8293Z"/>
        <path id="d1a7c8ec-fc36-4e3a-bdfb-6299c883c19f" data-name="&lt;Path&gt;" class="2830f772-44ee-4e52-bb96-69842e2b74d4" d="M350.96439,399.1736c-1.8953,1.0141-4.0337,2.1587-6.3665,3.4069-1.1506.6421-2.4087,1.2093-3.6906,1.8238q-1.9248.9111-3.9735,1.8806c-1.3474.6689-2.7973,1.23-4.2524,1.8457q-2.186.906-4.4604,1.8484c-1.52.6074-3.1038,1.1374-4.6821,1.7165-1.5902.5525-3.1685,1.1753-4.8086,1.677q-2.4555.7482-4.9436,1.5064l-2.4822.7497-2.5225.637q-2.516.62955-5.0256,1.2576c-1.6686.4114-3.3654.6955-5.02478,1.0415-1.66792.3159-3.304.686-4.94472.9407q-2.4603.3621-4.8542.7146c-3.1683.5285-6.2773.7324-9.1926,1.0302q-1.094.1029-2.157.2027c-.7087.0608-1.4126.0735-2.1006.111q-2.063.09195-3.9798.178c-1.2748.0406-2.4884.1419-3.6514.1226-1.1601-.0064-2.2605-.0125-3.2946-.0181-2.0657-.0256-3.8586.001-5.33608-.0681-2.94972-.1677-4.63532-.2637-4.63532-.2637s1.679-.0432,4.61732-.1191c1.46848-.0525,3.24728-.2268,5.28988-.3696,1.021-.0784,2.1075-.1617,3.2528-.2495,1.1466-.075,2.3409-.275,3.5931-.4183q1.8762-.23865,3.9021-.4965c.6732-.0923,1.3617-.1604,2.0537-.2776q1.0368-.1839,2.1043-.3736c2.84112-.5283,5.86-.9721,8.92-1.7444q2.3043-.5328,4.679-1.0817c1.5779-.3775,3.1467-.8704,4.74312-1.3086,1.58778-.4683,3.20868-.8741,4.79728-1.4058q2.3808-.8046,4.774-1.6135l2.3882-.8111,2.3428-.9199q2.33745-.9225,4.6506-1.8354c1.5396-.6084,3.015-1.3347,4.5002-1.9873,1.4733-.6792,2.9503-1.3059,4.3623-2.0061q2.1051-1.07715,4.1342-2.115c1.3457-.7005,2.6861-1.3423,3.9247-2.0879q1.8792-1.08,3.65-2.0977c1.1755-.6828,2.3286-1.3139,3.3772-2.0154,2.12252-1.3615,4.0681-2.6093,5.7927-3.7155,1.6705-1.1858,3.1269-2.2195,4.3262-3.0706,2.4173-1.6782,3.7185-2.7436,3.7185-2.7436l-14.1692-18.566a6.96952,6.96952,0,0,0-3.9912-2.5996,5.12469,5.12469,0,0,0-4.2164.7039s-.2839.2024-.8162.5818c-.539.3694-1.2927.9663-2.3355,1.6011-1.0271.6582-2.2743,1.4575-3.7049,2.3742l-1.1048.7124q-.58725.3369-1.2075.6924-1.23927.7116-2.6014,1.4939a141.16032,141.16032,0,0,1-28.0862,12.095q-2.0097.5691-4.0141,1.1369-1.00035.28575-1.996.5703-1.0095.2304-2.0123.4593-2.0034.46365-3.9698.9189c-1.3052.3223-2.6271.4864-3.9086.7361q-1.92825.34755-3.7869.6824-1.87215.2358-3.65788.4609-1.78248.2289-3.46242.4451-1.6878.1248-3.2562.2414a122.84388,122.84388,0,0,1-13.9517.4092,5.125,5.125,0,0,0-3.8935,1.7713,7.09612,7.09612,0,0,0-1.8509,4.4094l-1.4757,25.8608a6.03625,6.03625,0,0,0,1.7226,4.6038,6.89231,6.89231,0,0,0,4.7464,1.9895s.4699.0112,1.3508.0327c.881.0161,2.173.0786,3.8174.0134,1.6443-.0415,3.6411-.092,5.9315-.1499q.85875-.02595,1.7716-.0534.91125-.0675,1.8737-.1385c1.2827-.0971,2.6313-.1992,4.0385-.3059a177.18063,177.18063,0,0,0,40.527-8.1875q2.6775-.9075,5.34792-1.8127c1.76888-.627,3.49438-1.3511,5.22458-2.0196,3.4785-1.298,6.7777-2.8659,9.9993-4.3156,1.6234-.6995,3.1494-1.5315,4.6676-2.2957q2.26815-1.1649,4.4318-2.2754c2.8171-1.5932,5.4709-3.1196,7.90772-4.5476,2.37788-1.5239,4.55768-2.9209,6.48978-4.1592,1.9084-1.2729,3.5141-2.468,4.8639-3.4118,1.3372-.9617,2.40532-1.6939,3.102-2.2351.6948-.5437,1.06532-.8338,1.06532-.8338s-1.45672,1.0096-4.136,2.5762C354.42589,397.1081,352.81369,398.0701,350.96439,399.1736Z"/>
        <path id="618399fb-8a5b-479b-bfe1-2385e4be7203" data-name="&lt;Compound Path&gt;" class="2830f772-44ee-4e52-bb96-69842e2b74d4" d="M250.93261,0C112.3464,0,0,112.3463,0,250.9326S112.3464,501.8652,250.93261,501.8652,501.86519,389.5188,501.86519,250.9326,389.51879,0,250.93261,0Zm0,471.9326c-122.05491,0-221-98.9451-221-221s98.94509-221,221-221,221,98.9451,221,221S372.98749,471.9326,250.93261,471.9326Z"/>
        <path id="c8ed2b28-f927-4284-bfaa-b9e83e9811a8" data-name="&lt;Path&gt;" class="2830f772-44ee-4e52-bb96-69842e2b74d4" d="M430.17,238.4311c-.127-1.6416-.2812-3.635-.4581-5.9214-.2885-2.2766-.6138-4.8452-.9688-7.6472-.1506-1.4048-.4526-2.8476-.7074-4.3491q-.4029-2.24925-.8319-4.6433c-.2559-1.5994-.7013-3.2063-1.0601-4.8679q-.57825-2.484-1.18008-5.0686a184.77231,184.77231,0,0,0-6.88732-21.0305l-1.039-2.628-.521-1.3115-.5775-1.2849q-1.1595-2.5653-2.3069-5.104c-.7336-1.7051-1.62028-3.3189-2.4356-4.9431-.836-1.6138-1.6308-3.2249-2.4759-4.7749q-1.3185-2.29695-2.5893-4.511c-.8437-1.4756-1.6691-2.919-2.5648-4.2673q-1.30995-2.0436-2.5446-3.9693c-.41608-.6372-.8072-1.2761-1.2248-1.8801q-.6369-.89865-1.24928-1.7632-1.22763-1.7259-2.34852-3.302c-.7412-1.0522-1.4534-2.0437-2.1764-2.9346-1.4176-1.8037-2.6535-3.3759-3.6712-4.6709-.9975-1.3117-1.8977-2.2456-2.458-2.9267-.5772-.6673-.885-1.023-.885-1.023s.2627.3567.7552,1.0257c.4792.6794,1.241,1.6262,2.0968,2.9204,1.7042,2.5927,4.2498,6.1987,6.8878,10.7834a178.43423,178.43423,0,0,1,15.87132,34.8902,176.372,176.372,0,0,1,5.12638,19.5832q.46545,2.3628.914,4.6401.342,2.29065.6682,4.4756.31563,2.17455.6131,4.2242.19785,2.0577.3819,3.9694c.5756,5.0677.6142,9.3174.7741,12.2642.09132,1.4729.0138,2.6411.0309,3.4307-.0049.7912-.00758,1.2131-.00758,1.2131s-.03212-.419-.09212-1.2044c-.0822-.7832-.1001-1.9416-.3121-3.3984-.4015-2.9141-.7846-7.105-1.7644-12.0574q-.3342-1.8618-.6952-3.8725-.4572-1.98825-.944-4.104-.4932-2.11095-1.012-4.3308-.62055-2.1903-1.26618-4.469a167.184,167.184,0,0,0-24.436-50.9192c-2.852-4.1624-5.54612-7.3928-7.34632-9.7183-.9038-1.1601-1.7009-2-2.20368-2.6062-.51552-.5957-.79062-.9133-.79062-.9133l-17.6796,15.2605a6.99456,6.99456,0,0,0-2.3635,4.1484,5.62889,5.62889,0,0,0,.0774,2.1795,4.7226,4.7226,0,0,0,.9035,1.967s.8627,1.096,2.3724,3.0142c.7648.9519,1.5759,2.1945,2.575,3.5691q.74055,1.03785,1.5727,2.2038c.5458.7815,1.0598,1.6428,1.6311,2.5186a143.45236,143.45236,0,0,1,13.7812,27.3091,140.71487,140.71487,0,0,1,7.479,29.6489c.24842,2.0764.5313,3.9729.6995,5.664.1274,1.6958.2385,3.1744.33,4.3919.2266,2.4321.2156,3.832.2156,3.832.0686,2.9502,2.9911,5.3535,6.5086,5.3684l25.9028-.0664a6.40672,6.40672,0,0,0,6.1995-6.8503S430.45609,241.7136,430.17,238.4311Z"/>
      </g>
    </g>
  </g>
</svg>
