<svg id="c75845e2-c61a-4b93-b2a5-49b9fd9c9be0" data-name="Bamboo" xmlns="http://www.w3.org/2000/svg" viewBox="0 0 879.67614 888.01864"><defs><style>.\38 56f9302-4fad-458f-86f0-6e751981ebcf{fill:#fff;}</style></defs><title>smallSpinner</title><path id="7fd11283-e4f5-4041-be6a-f0fb5af80c35" data-name="3d7e46b2-97b8-4b01-9ea7-de7f00cd53cf" class="856f9302-4fad-458f-86f0-6e751981ebcf" d="M210.124,727.74671a13.05129,13.05129,0,0,0-2.03885-10.18351s-1.97442-2.77822-5.42968-7.64039c-.8552-1.22132-1.85071-2.54065-2.84841-4.03475q-1.45074-2.2719-3.13-4.90319-1.68245-2.621-3.57334-5.56748-.947-1.46792-1.94137-3.01094-.9114-1.59154-1.86391-3.25507a346.18733,346.18733,0,0,1-30.87555-68.0719l-1.64736-4.83084-1.38167-4.90267q-1.39278-4.89078-2.77042-9.7306c-.939-3.21621-1.53563-6.49455-2.31827-9.68346-.71882-3.20427-1.51659-6.35082-2.15988-9.4764-1.05342-6.29778-2.30335-12.34532-3.136-18.14015-.69538-5.81557-1.48778-11.2963-2.02915-16.37962-.3864-5.10138-.74081-9.7773-1.05465-13.92207-.20678-2.06873-.24368-4.01692-.2735-5.818-.04326-1.80014-.08309-3.45355-.119-4.94716-.16033-5.97374-.252-9.38746-.252-9.38746.19234-7.21019-6.62751-13.36111-15.22038-13.73872L79.962,494.09466a15.82835,15.82835,0,0,0-15.96146,15.69412q-.00183.21543.00222.43082s.111,4.5935.30527,12.63178c.023,8.042.91948,19.51252,2.109,33.25736.88136,6.846,1.7346,14.27867,2.879,22.104q1.03865,5.84391,2.13054,11.98923c.75328,4.08562,1.40517,8.2829,2.45222,12.47533,1.968,8.40829,3.78034,17.15319,6.42467,25.83477,1.25847,4.35593,2.44241,8.77272,3.80575,13.1526q2.20156,6.52147,4.41483,13.07637a433.032,433.032,0,0,0,44.12938,90.91333q2.79843,4.35542,5.35387,8.33377c1.68426,2.65776,3.50344,5.02783,5.09726,7.33413,3.26072,4.56194,6.103,8.53956,8.44425,11.815,4.96868,6.33426,7.80782,9.95377,7.80782,9.95377s-2.39526-3.6046-6.58721-9.9132c-2.044-3.18271-4.34983-7.17181-7.06722-11.671q-2.0168-3.38347-4.28384-7.185-2.09562-3.8912-4.39919-8.16781-2.27489-4.265-4.73134-8.87125c-1.65323-3.04757-3.08624-6.3594-4.69962-9.66877q-2.35737-4.98968-4.83573-10.23579c-1.57207-3.52613-3.03341-7.199-4.58592-10.88718-1.50021-3.71461-3.16443-7.41356-4.57079-11.28265q-2.08461-5.79994-4.21417-11.72549-1.05327-2.95092-2.1144-5.92409-.93048-3.01906-1.86588-6.05365-1.83858-6.05694-3.68674-12.1449a423.71126,423.71126,0,0,1-15.193-90.84464c-.25441-6.23647-.59123-11.92128-.6785-16.966.03058-5.04275.05747-9.43925.07919-13.05951-.03884-7.21851.2994-11.33472.2994-11.33472s.00245,4.10785.63524,11.27184c.27374,3.58334.60639,7.93464.98792,12.92555.49786,4.98017,1.29611,10.57674,2.04965,16.693a418.17578,418.17578,0,0,0,22.03316,87.51282q2.2602,5.73717,4.51457,11.45935,1.13542,2.85225,2.26572,5.69264,1.256,2.78635,2.504,5.55286,2.5018,5.52975,4.95743,10.95685c1.64589,3.6078,3.54107,7.04129,5.26247,10.48731,1.774,3.41983,3.447,6.82154,5.22119,10.07669q2.76978,4.82364,5.412,9.42389c1.79521,3.04025,3.39979,6.08416,5.21407,8.86783q2.6877,4.19709,5.185,8.0962,2.50436,3.88459,4.79146,7.43213,2.43839,3.43516,4.61673,6.50358c2.92026,4.067,5.39054,7.66895,7.56533,10.5296,4.43929,5.65452,6.97606,8.88565,6.97606,8.88565l27.50505-31.85669A17.23179,17.23179,0,0,0,210.124,727.74671Z" transform="translate(-64 -64.69146)"/><path id="95f78af4-a42e-4b7b-ac22-7a5886b7e437" data-name="3d7e46b2-97b8-4b01-9ea7-de7f00cd53cf" class="856f9302-4fad-458f-86f0-6e751981ebcf" d="M284.418,217.21075a13.05126,13.05126,0,0,0,10.11864-2.33962s2.71851-2.05584,7.47619-5.65362c1.19546-.891,2.48472-1.92515,3.94861-2.96667q2.22793-1.5174,4.80832-3.27382,2.57-1.75935,5.45919-3.73669,1.43922-.99006,2.95211-2.02971,1.56385-.95815,3.19843-1.95951a346.18782,346.18782,0,0,1,67.12743-32.87844l4.77993-1.78973,4.85959-1.52629q4.84735-1.537,9.64426-3.05745c3.187-1.0339,6.44621-1.72733,9.61054-2.6041,3.18157-.81341,6.3031-1.704,9.40826-2.43964,6.26381-1.23951,12.27167-2.668,18.03929-3.672,5.79242-.86734,11.24728-1.82174,16.31233-2.51345,5.08769-.53735,9.75106-1.03012,13.88471-1.46659,2.0617-.268,4.00794-.36257,5.80737-.44572,1.79807-.09657,3.44958-.18536,4.94147-.26552,5.96636-.33721,9.37587-.53,9.37587-.53,7.21273-.02131,13.15893-7.02038,13.28183-15.62066l4.65947-46.2569a15.82835,15.82835,0,0,0-16.16-15.48956q-.21539.00456-.43057.015s-4.58819.247-12.61719.67932c-8.03777.2612-19.47672,1.49707-33.18029,3.09327-6.8169,1.08377-14.221,2.15681-22.00906,3.53246q-5.81058,1.21129-11.92086,2.48475c-4.06151.874-8.23764,1.64991-12.39722,2.82068-8.34629,2.21622-17.03367,4.2868-25.63311,7.18714-4.31674,1.387-8.69653,2.7012-13.0341,4.19368q-6.45339,2.39378-12.93985,4.80025a433.03151,433.03151,0,0,0-89.56624,46.803q-4.2706,2.92623-8.17152,5.5984c-2.6067,1.76225-4.92184,3.65083-7.17991,5.31226-4.46336,3.39443-8.355,6.3533-11.55967,8.79054-6.1843,5.15413-9.71812,8.09924-9.71812,8.09924s3.53206-2.501,9.71371-6.878c3.12078-2.13742,7.03983-4.56037,11.4565-7.40985q3.32225-2.11613,7.055-4.49479,3.82741-2.21,8.03391-4.63921,4.19576-2.40021,8.72721-4.99205c2.99726-1.74278,6.26519-3.27326,9.52531-4.984q4.91766-2.50413,10.08806-5.13681c3.478-1.67584,7.106-3.24533,10.74656-4.90641,3.66854-1.60959,7.31657-3.38265,11.1423-4.903q5.73564-2.2555,11.59551-4.55966,2.91843-1.14023,5.85886-2.28895,2.99017-1.01951,5.99572-2.04439,5.99982-2.01718,12.03037-4.04487a423.71089,423.71089,0,0,1,90.35472-17.87734c6.2262-.439,11.89854-.94411,16.93843-1.18077,5.04144-.11881,9.43681-.22217,13.05612-.30769,7.2142-.25265,11.33861-.03649,11.33861-.03649s-4.106.12413-11.24807.96886c-3.57366.37976-7.9132.84116-12.89061,1.37036-4.96324.64517-10.53371,1.60885-16.62494,2.54323a418.17539,418.17539,0,0,0-86.82174,24.61581q-5.66771,2.42914-11.32059,4.852-2.81737,1.21941-5.623,2.43335-2.74793,1.338-5.47625,2.6674-5.4532,2.66451-10.80519,5.27983c-3.55747,1.752-6.93331,3.74808-10.32682,5.57081-3.36579,1.87448-6.71645,3.64752-9.91761,5.51738q-4.73948,2.91147-9.25944,5.6888c-2.98574,1.88449-5.98078,3.57853-8.70948,5.47448q-4.11564,2.81083-7.93906,5.42256-3.80871,2.61831-7.28694,5.0095-3.36142,2.53908-6.364,4.80736c-3.97876,3.03945-7.50591,5.61534-10.30087,7.87392-5.52055,4.60484-8.67511,7.23621-8.67511,7.23621l32.65747,26.54932A17.23177,17.23177,0,0,0,284.418,217.21075Z" transform="translate(-64 -64.69146)"/><path id="b6ace785-bc48-49d2-9835-9baed2913c4c" data-name="25ca55a1-3e3a-421a-bfb7-a64c93970ca2" class="856f9302-4fad-458f-86f0-6e751981ebcf" d="M84.51238,469.82732l49.423-.264s.45733-3.57894,1.25776-9.84278c.45925-3.12189.72542-6.95991,1.60531-11.27064.77136-4.32807,1.64148-9.211,2.591-14.53772,1.21571-5.27125,2.53262-10.982,3.92577-17.022,1.63709-5.97593,3.43621-12.26174,5.317-18.75458q1.62849-4.80311,3.30665-9.75212c1.13407-3.28833,2.15866-6.663,3.54229-9.93516,2.65164-6.58547,5.09311-13.3814,8.22207-19.88792q2.22942-4.92927,4.453-9.84573,2.46-4.79578,4.89439-9.5414c3.09062-6.39971,6.782-12.34779,10.10284-18.23984,1.62047-2.9716,3.47335-5.73736,5.22778-8.48041q2.63375-4.112,5.14635-8.03534c3.44869-5.15322,6.96115-9.85524,10.05764-14.29479,3.19107-4.37159,6.37651-8.18466,9.05553-11.67245,2.6509-3.51344,5.21236-6.37088,7.28232-8.75661,4.13329-4.77684,6.495-7.50621,6.495-7.50621s-2.10315,2.95153-5.78357,8.11526c-1.83847,2.57318-4.11348,5.65282-6.42589,9.408-2.34049,3.72878-5.1349,7.80191-7.88526,12.43721-2.656,4.70277-5.67821,9.67145-8.59286,15.07838q-2.1022,4.09775-4.31341,8.40638c-1.46648,2.86184-3.021,5.74225-4.33441,8.82188-2.70666,6.10863-5.74861,12.24806-8.16442,18.80374q-1.92,4.84233-3.8659,9.74794-1.69453,4.98531-3.39783,9.996c-2.41921,6.58768-4.13988,13.4237-6.07489,20.00891-1.02557,3.27294-1.6928,6.63732-2.47323,9.90659q-1.14278,4.8999-2.255,9.66754c-1.18908,6.41929-2.31558,12.59657-3.315,18.44078-.75572,5.87889-1.4704,11.43783-2.1298,16.56882-.396,5.14027-.75893,9.85233-1.08082,14.02936-.43163,4.14134-.30967,7.8188-.4502,10.80114-.166,5.96784-.26052,9.37865-.26052,9.37865s.46-3.58382,1.26457-9.85475c.40768-3.13387.78529-6.95943,1.66106-11.2743.83318-4.31953,1.532-9.24249,2.69658-14.5287q.91656-3.95621,1.90667-8.22695c.70123-2.83129,1.21082-5.81557,2.14619-8.77519q1.2729-4.47456,2.61131-9.17871.66139-2.35041,1.33645-4.75115.80436-2.35855,1.62388-4.76117,1.62289-4.80714,3.29542-9.7626c1.127-3.294,2.54435-6.52681,3.80992-9.84524,2.44757-6.67617,5.56823-13.19273,8.51735-19.78163a346.674,346.674,0,0,1,41.86832-67.33146c1.69574-2.11468,3.22456-4.22,4.84329-6.08763q2.43106-2.798,4.60279-5.2984c2.90949-3.3074,5.3182-6.30711,7.57463-8.53054l6.86164-7.195a13.16105,13.16105,0,0,0,3.44013-9.80955,17.19012,17.19012,0,0,0-4.74163-10.68773L214.77972,206.267a14.86353,14.86353,0,0,0-11.07437-4.65022,16.03138,16.03138,0,0,0-11.57592,5.03859s-2.99382,3.14-8.23259,8.6349c-2.67361,2.69785-5.67088,6.20127-9.13129,10.19962-3.423,4.02964-7.4793,8.41369-11.41412,13.60334a425.95306,425.95306,0,0,0-26.0457,36.02826q-3.29006,5.1415-6.68031,10.44088c-2.1484,3.59385-4.22982,7.28941-6.37014,10.98836-4.39923,7.33435-8.24044,15.12969-12.20336,22.85828a433.29873,433.29873,0,0,0-32.69277,89.593c-1.456,6.35085-2.85328,12.16079-3.94459,17.33917-.93464,5.20994-1.74926,9.75138-2.42016,13.49236-1.41982,7.46954-1.86564,11.79026-1.86564,11.79026A15.6603,15.6603,0,0,0,83.881,469.731Q84.19571,469.78559,84.51238,469.82732Z" transform="translate(-64 -64.69146)"/><path id="eb628937-d961-4406-a82e-39156a55c5be" data-name="25ca55a1-3e3a-421a-bfb7-a64c93970ca2" class="856f9302-4fad-458f-86f0-6e751981ebcf" d="M543.30449,79.0717l.264,49.423,9.84278,1.25776c3.12189.45925,6.95991.72542,11.27064,1.60531,4.32807.77136,9.211,1.64148,14.53772,2.591,5.27125,1.21571,10.982,2.53262,17.022,3.92577,5.97593,1.63709,12.26174,3.43621,18.75458,5.317q4.80311,1.62849,9.75212,3.30665c3.28833,1.13407,6.663,2.15866,9.93516,3.54229,6.58547,2.65164,13.3814,5.09311,19.88792,8.22207q4.92925,2.22942,9.84573,4.453,4.79578,2.46,9.5414,4.89439c6.39971,3.09062,12.34778,6.782,18.23984,10.10284,2.97159,1.62047,5.73736,3.47335,8.48041,5.22778q4.112,2.63375,8.03534,5.14635c5.15321,3.44869,9.85524,6.96115,14.29478,10.05764,4.3716,3.19107,8.18467,6.37651,11.67246,9.05553,3.51344,2.6509,6.37088,5.21236,8.75661,7.28232,4.77684,4.13329,7.5062,6.495,7.5062,6.495s-2.95153-2.10315-8.11526-5.78357c-2.57317-1.83847-5.65281-4.11348-9.408-6.42589-3.72879-2.34049-7.80191-5.1349-12.43722-7.88526-4.70277-2.656-9.67145-5.67821-15.07838-8.59286q-4.09773-2.10221-8.40638-4.31341c-2.86183-1.46648-5.74224-3.021-8.82188-4.33441-6.10862-2.70666-12.24806-5.74861-18.80373-8.16442q-4.84233-1.92-9.74794-3.8659-4.98532-1.69454-9.996-3.39783c-6.58767-2.41921-13.42369-4.13988-20.0089-6.07489-3.27294-1.02557-6.63732-1.6928-9.9066-2.47323q-4.89988-1.14277-9.66753-2.255c-6.41929-1.18908-12.59658-2.31558-18.44078-3.315-5.8789-.75572-11.43784-1.4704-16.56882-2.1298-5.14028-.396-9.85233-.75893-14.02936-1.08082-4.14134-.43163-7.81881-.30967-10.80114-.4502-5.96784-.166-9.37865-.26052-9.37865-.26052s3.58382.45995,9.85475,1.26457c3.13386.40768,6.95943.78529,11.2743,1.66106,4.31953.83318,9.24249,1.532,14.52869,2.69658q3.9562.91656,8.227,1.90667c2.83129.70123,5.81556,1.21082,8.77519,2.14619q4.47456,1.2729,9.17871,2.61131,2.35039.66139,4.75114,1.33645,2.35857.80436,4.76118,1.62388,4.80714,1.62289,9.76259,3.29542c3.294,1.127,6.52681,2.54435,9.84525,3.80992,6.67617,2.44757,13.19273,5.56823,19.78163,8.51735a346.674,346.674,0,0,1,67.33146,41.86832c2.11468,1.69574,4.22,3.22456,6.08763,4.84329q2.798,2.43107,5.2984,4.60278c3.30739,2.9095,6.30711,5.31821,8.53054,7.57464l7.19505,6.86164a13.16105,13.16105,0,0,0,9.80955,3.44013,17.19012,17.19012,0,0,0,10.68773-4.74163l39.85646-36.154a14.86353,14.86353,0,0,0,4.65022-11.07437,16.03142,16.03142,0,0,0-5.03859-11.57592s-3.14-2.99382-8.6349-8.23259c-2.69786-2.67361-6.20127-5.67088-10.19962-9.13129-4.02964-3.423-8.41369-7.4793-13.60334-11.41412a425.9516,425.9516,0,0,0-36.02827-26.0457q-5.14151-3.29005-10.44087-6.68032c-3.59386-2.14839-7.28941-4.22981-10.98836-6.37013-7.33435-4.39923-15.1297-8.24044-22.85829-12.20336a433.29865,433.29865,0,0,0-89.593-32.69277c-6.35086-1.456-12.16079-2.85328-17.33918-3.94459-5.20994-.93464-9.75137-1.74926-13.49235-2.42016-7.46954-1.41982-11.79027-1.86564-11.79027-1.86564a15.66029,15.66029,0,0,0-18.10714,12.75228Q543.34622,78.755,543.30449,79.0717Z" transform="translate(-64 -64.69146)"/><path id="463bd548-c073-40c7-a23b-d47d70bc75ba" data-name="3d7e46b2-97b8-4b01-9ea7-de7f00cd53cf" class="856f9302-4fad-458f-86f0-6e751981ebcf" d="M791.15685,280.09657a13.05122,13.05122,0,0,0,2.33962,10.11864s2.05584,2.71851,5.65361,7.4762c.891,1.19545,1.92516,2.48471,2.96668,3.9486q1.5174,2.22793,3.27382,4.80832,1.75935,2.57,3.73669,5.45919.99,1.43922,2.02971,2.95211.95814,1.56386,1.95951,3.19843a346.18819,346.18819,0,0,1,32.87844,67.12744l1.78973,4.77992L849.311,394.825q1.537,4.84737,3.05745,9.64426c1.0339,3.187,1.72733,6.44621,2.6041,9.61054.81341,3.18157,1.704,6.30311,2.43964,9.40826,1.23951,6.26382,2.668,12.27167,3.672,18.0393.86734,5.79241,1.82174,11.24727,2.51345,16.31232.53735,5.08769,1.03012,9.75106,1.46659,13.88471.268,2.0617.36257,4.00795.44572,5.80738.09657,1.79806.18536,3.44957.26552,4.94146.33721,5.96636.53,9.37587.53,9.37587.02132,7.21273,7.02039,13.15893,15.62067,13.28183l46.2569,4.65947a15.82834,15.82834,0,0,0,15.48956-16.16q-.00456-.2154-.015-.43058s-.247-4.58819-.67932-12.61719c-.2612-8.03777-1.49708-19.47672-3.09327-33.18029-1.08377-6.8169-2.15681-14.221-3.53246-22.00906q-1.2113-5.81058-2.48475-11.92086c-.874-4.06151-1.64991-8.23764-2.82068-12.39721-2.21623-8.3463-4.2868-17.03368-7.18714-25.63312-1.38695-4.31674-2.7012-8.69653-4.19368-13.03409q-2.39378-6.45341-4.80025-12.93986a433.03155,433.03155,0,0,0-46.803-89.56624q-2.92622-4.27059-5.59839-8.17151c-1.76225-2.60671-3.65083-4.92185-5.31227-7.17992-3.39442-4.46336-6.35329-8.355-8.79053-11.55967-5.15413-6.1843-8.09925-9.71812-8.09925-9.71812s2.501,3.53206,6.878,9.71372c2.13742,3.12077,4.56037,7.03982,7.40984,11.45649q2.11614,3.32225,4.4948,7.055,2.20995,3.82743,4.63921,8.03391,2.40021,4.19575,4.99205,8.72722c1.74278,2.99725,3.27326,6.26518,4.984,9.52531q2.50413,4.91764,5.13681,10.088c1.67584,3.478,3.24533,7.106,4.90641,10.74656,1.60959,3.66854,3.38264,7.31657,4.903,11.1423q2.25551,5.73564,4.55966,11.59551,1.14021,2.91843,2.289,5.85886,1.0195,2.99018,2.04438,5.99573,2.0172,5.9998,4.04488,12.03036a423.71089,423.71089,0,0,1,17.87734,90.35472c.439,6.2262.94411,11.89854,1.18077,16.93843.11881,5.04144.22216,9.43681.30769,13.05612.25265,7.2142.03649,11.33861.03649,11.33861s-.12413-4.106-.96886-11.24807c-.37976-3.57365-.84116-7.9132-1.37036-12.89061-.64517-4.96324-1.60885-10.53371-2.54323-16.62493a418.17591,418.17591,0,0,0-24.61581-86.82175q-2.42914-5.66771-4.852-11.32059-1.21941-2.81737-2.43335-5.623-1.338-2.74793-2.6674-5.47625-2.66451-5.45321-5.27983-10.80519c-1.752-3.55746-3.74808-6.93331-5.57081-10.32682-1.87448-3.36579-3.64753-6.71645-5.51739-9.91761q-2.91146-4.73947-5.6888-9.25944c-1.88448-2.98574-3.57852-5.98078-5.47447-8.70948q-2.81085-4.11564-5.42256-7.93906-2.61831-3.80871-5.00951-7.28694-2.53908-3.36142-4.80735-6.364c-3.03945-3.97875-5.61534-7.50591-7.87392-10.30087-4.60484-5.52055-7.23621-8.67511-7.23621-8.67511L797.0655,269.99728A17.23177,17.23177,0,0,0,791.15685,280.09657Z" transform="translate(-64 -64.69146)"/><path id="9210a1af-edb1-44a5-9ea0-7be99cfc0097" data-name="25ca55a1-3e3a-421a-bfb7-a64c93970ca2" class="856f9302-4fad-458f-86f0-6e751981ebcf" d="M926.14332,570.08344l-49.39093-1.80084s-.60643,3.5567-1.66783,9.78164c-.58926,3.1-1.01553,6.92354-2.07473,11.19375-.95149,4.29207-2.02483,9.13436-3.19606,14.41679-1.43485,5.21586-2.98917,10.8666-4.63342,16.84309-1.88529,5.90233-3.94543,12.1075-6.09581,18.5161q-1.82772,4.7309-3.71114,9.60547c-1.27045,3.23809-2.43512,6.567-3.95424,9.77851-2.92443,6.469-5.64766,13.157-9.04569,19.5271q-2.43339,4.83183-4.86038,9.65111-2.65821,4.68883-5.2887,9.32862c-3.35526,6.265-7.2919,12.05369-10.856,17.80188-1.74319,2.90131-3.71,5.58726-5.57748,8.25462q-2.80321,3.9984-5.47753,7.81334c-3.66094,5.00465-7.36676,9.55584-10.646,13.86216-3.3709,4.23448-6.71285,7.91115-9.53523,11.284-2.79535,3.39964-5.47395,6.14758-7.64176,8.44476-4.32922,4.6-6.80293,7.22832-6.80293,7.22832s2.22461-2.86109,6.11752-7.86657c1.94436-2.49413,4.346-5.476,6.81329-9.13131,2.49422-3.62776,5.45634-7.5806,8.39794-12.097,2.85018-4.58772,6.07726-9.42581,9.21523-14.70626q2.27156-4.00635,4.66082-8.21886c1.58475-2.79807,3.2582-5.611,4.69916-8.63311,2.95947-5.99023,6.25523-11.99722,8.94279-18.44626q2.12061-4.75789,4.26974-9.57794,1.90131-4.91017,3.81244-9.84536c2.69228-6.48086,4.697-13.239,6.90544-19.73766,1.16139-3.22724,1.96859-6.56081,2.88491-9.79463q1.34646-4.84788,2.65684-9.5649c1.4562-6.364,2.83977-12.48885,4.08243-18.2862,1.00065-5.8422,1.94692-11.36643,2.82009-16.46539.61034-5.11925,1.16984-9.812,1.66594-13.972.60425-4.11969.636-7.79905.901-10.77291.41512-5.95569.65208-9.35958.65208-9.35958s-.60926,3.56148-1.67514,9.79333c-.53824,3.11409-1.07533,6.92054-2.13058,11.19506-1.0129,4.281-1.91673,9.17043-3.30115,14.40337q-1.081,3.91446-2.24868,8.14012c-.81889,2.79953-1.4527,5.75991-2.51089,8.67788q-1.45871,4.41748-2.99246,9.06161-.759,2.32072-1.53376,4.69117-.90219,2.3229-1.82136,4.68918-1.82229,4.73515-3.70036,9.61641c-1.26361,3.244-2.81478,6.41483-4.21787,9.6775-2.72433,6.5681-6.11448,12.9486-9.33628,19.40856a346.67459,346.67459,0,0,1-44.64447,65.52368c-1.78261,2.042-3.398,4.08164-5.09337,5.88q-2.54583,2.694-4.82011,5.1015c-3.04512,3.183-5.577,6.07944-7.92438,8.20666l-7.15621,6.90214a13.161,13.161,0,0,0-3.84691,9.65728,17.19,17.19,0,0,0,4.291,10.87647l34.45752,41.332a14.86353,14.86353,0,0,0,10.87045,5.10878,16.03137,16.03137,0,0,0,11.7763-4.55062s3.12238-3.01217,8.58612-8.28345c2.784-2.58381,5.925-5.959,9.5494-9.80926,3.58835-3.88313,7.82424-8.09391,11.97241-13.11466a425.95175,425.95175,0,0,0,27.528-34.90878q3.502-4.99957,7.11064-10.1527c2.29664-3.501,4.53063-7.10635,6.8236-10.71266,4.70178-7.14417,8.86528-14.77225,13.14759-22.32855a433.29846,433.29846,0,0,0,36.40689-88.14908c1.72-6.28448,3.35879-12.031,4.66548-17.15926,1.15146-5.16634,2.15509-9.66978,2.98167-13.37947,1.73062-7.40371,2.35654-11.702,2.35654-11.702a15.66029,15.66029,0,0,0-11.98474-18.62405Q926.458,570.13837,926.14332,570.08344Z" transform="translate(-64 -64.69146)"/><path id="6d2fc238-0465-4f3e-adf6-65949ab65cee" data-name="3d7e46b2-97b8-4b01-9ea7-de7f00cd53cf" class="856f9302-4fad-458f-86f0-6e751981ebcf" d="M711.74388,802.48444a13.05129,13.05129,0,0,0-10.14307,2.23134s-2.74033,2.02667-7.53619,5.57339c-1.20491.87818-2.50516,1.89849-3.98009,2.92431q-2.244,1.49351-4.843,3.22224-2.58866,1.73178-5.49881,3.67813-1.44972.97461-2.97364,1.998-1.574.94138-3.21919,1.92522a346.18841,346.18841,0,0,1-67.475,32.15911l-4.79878,1.73855-4.87563,1.47426q-4.86351,1.48515-9.67639,2.9542c-3.19785.99978-6.4643,1.65834-9.63782,2.50123-3.19009.77937-6.321,1.63658-9.4338,2.33895-6.2767,1.1725-12.29948,2.53672-18.07751,3.479-5.80135.80538-11.2661,1.70142-16.33826,2.339-5.09314.48295-9.76151.92584-13.89959,1.31811-2.06444.24592-4.01159.31971-5.8118.38363-1.799.07734-3.45136.14848-4.944.21269-5.96963.27342-9.381.42972-9.381.42972-7.21254-.05577-13.23321,6.87935-13.448,15.47783l-5.15359,46.20445a15.82834,15.82834,0,0,0,15.99356,15.66139q.21543-.00225.43071-.01037s4.59057-.19794,12.62374-.54443c8.0401-.17529,19.4916-1.28883,33.21145-2.73848,6.82809-1.01085,14.24326-2.00469,22.04556-3.297q5.82318-1.14914,11.94673-2.35721c4.07062-.83051,8.25481-1.56177,12.42666-2.688,8.3695-2.12689,17.07852-4.1045,25.70846-6.91277,4.33132-1.34073,8.7249-2.60809,13.07817-4.05413q6.47862-2.32467,12.99042-4.66168A433.03181,433.03181,0,0,0,731.11545,879.602q4.30164-2.88041,8.23089-5.51074c2.62539-1.73428,4.96058-3.598,7.23628-5.23522,4.49938-3.34653,8.42246-6.26364,11.653-8.66649,6.239-5.08774,9.80412-7.99492,9.80412-7.99492s-3.55859,2.4631-9.78667,6.77376c-3.14344,2.10395-7.08816,4.48487-11.535,7.287q-3.34469,2.0805-7.10261,4.41913-3.85083,2.16893-8.083,4.55308-4.22117,2.35524-8.78007,4.89849c-3.01571,1.71065-6.29981,3.20611-9.578,4.88187q-4.94414,2.45143-10.14238,5.0287c-3.49572,1.63857-7.14024,3.1692-10.79838,4.79128-3.68554,1.57029-7.35231,3.30425-11.19407,4.78363q-5.75943,2.19408-11.64358,4.43546-2.93046,1.109-5.883,2.22621-3.0009.98748-6.01723,1.98019-6.021,1.953-12.07291,3.91606a423.71089,423.71089,0,0,1-90.54063,16.91063c-6.23054.37246-11.90795.81688-16.95008.99967-5.04242.06492-9.43865.12129-13.05867.16813-7.21648.17554-11.33835-.0847-11.33835-.0847s4.10707-.08023,11.25779-.84858c3.57751-.34155,7.92173-.75654,12.90452-1.23251,4.96985-.59209,10.5503-1.49618,16.65116-2.36541a418.17548,418.17548,0,0,0,87.07988-23.68646q5.69334-2.36844,11.3718-4.73077,2.83024-1.18923,5.64872-2.37311,2.76205-1.30858,5.50444-2.60872,5.48137-2.60607,10.861-5.164c3.576-1.71391,6.973-3.67377,10.38577-5.46013,3.38563-1.8384,6.755-3.57553,9.976-5.41107q4.77033-2.86065,9.31971-5.58951c3.00571-1.85247,6.01869-3.5144,8.7675-5.38108q4.14544-2.76669,7.99656-5.3374,3.83647-2.57745,7.34007-4.93134,3.38837-2.503,6.415-4.73906c4.011-2.99675,7.56549-5.5348,10.38444-7.76338,5.56944-4.54557,8.75195-7.14308,8.75195-7.14308l-32.37185-26.89684A17.23184,17.23184,0,0,0,711.74388,802.48444Z" transform="translate(-64 -64.69146)"/><path id="9dbaa1ed-3996-4d9c-9624-b492efa0c798" data-name="25ca55a1-3e3a-421a-bfb7-a64c93970ca2" class="856f9302-4fad-458f-86f0-6e751981ebcf" d="M449.83,932.56126l1.41647-49.40345-9.79433-1.59167c-3.10447-.56512-6.93123-.96162-11.20955-1.98756-4.29934-.91807-9.14984-1.9537-14.44122-3.08379-5.22688-1.39422-10.88953-2.90452-16.87864-4.50222-5.91682-1.83931-12.13783-3.8511-18.563-5.95155q-4.745-1.79085-9.63406-3.63629c-3.24788-1.24521-6.58573-2.384-9.809-3.878-6.49152-2.874-13.20051-5.54511-19.59689-8.89347q-4.85061-2.39573-9.68864-4.78514-4.70937-2.62164-9.36949-5.21595c-6.29093-3.30641-12.11007-7.19788-17.88581-10.71712-2.91479-1.72056-5.616-3.66641-8.29777-5.51309q-4.02009-2.772-7.85573-5.41656c-5.033-3.62189-9.61287-7.29218-13.94457-10.53782-4.26058-3.33786-7.96315-6.6511-11.35784-9.44714-3.42128-2.76882-6.19-5.42595-8.504-7.57583-4.63355-4.2933-7.281-6.74648-7.281-6.74648s2.87832,2.20229,7.91393,6.05613c2.50919,1.9249,5.5097,4.30329,9.18406,6.742,3.64706,2.46592,7.62282,5.39719,12.16194,8.30356,4.60975,2.81439,9.47281,6.00374,14.77752,9.10052q4.0239,2.24031,8.25487,4.59673c2.81032,1.56293,5.63621,3.21443,8.66942,4.63183,6.01307,2.91278,12.04553,6.1617,18.51528,8.799q4.77425,2.08353,9.61087,4.19508,4.92483,1.863,9.87473,3.73571c6.50161,2.64178,13.27518,4.59388,19.7908,6.75166,3.23617,1.13624,6.57592,1.91748,9.81678,2.8086q4.8582,1.30871,9.58528,2.58234c6.37515,1.40664,12.51057,2.74251,18.31742,3.94,5.8498.95516,11.38123,1.85842,16.48683,2.69189,5.12384.57048,9.82083,1.09345,13.9845,1.55716,4.12427.57218,7.80376.57533,10.77959.81717,5.95874.36876,9.36437.57923,9.36437.57923s-3.56611-.58154-9.80606-1.59889c-3.11819-.514-6.92871-1.02144-11.21131-2.04341-4.28871-.97955-9.18506-1.84531-14.42861-3.189q-3.92277-1.05053-8.15738-2.18527c-2.80582-.79709-5.771-1.40785-8.69715-2.44329q-4.4287-1.42429-9.08463-2.92187-2.32655-.74093-4.703-1.4972-2.32986-.88408-4.70321-1.78482-4.74919-1.78539-9.64492-3.62543c-3.25375-1.23832-6.43653-2.76478-9.71-4.14244-6.5891-2.67313-12.99579-6.01354-19.48062-9.185a346.67424,346.67424,0,0,1-65.86908-44.13328c-2.0558-1.76666-4.108-3.36617-5.91944-5.04746q-2.71377-2.52478-5.13885-4.78026c-3.20657-3.02026-6.12265-5.52956-8.26808-7.86029l-6.95761-7.10229a13.16108,13.16108,0,0,0-9.68692-3.77165,17.19014,17.19014,0,0,0-10.84276,4.37553L190.851,793.40858a14.86355,14.86355,0,0,0-5.024,10.90988,16.03141,16.03141,0,0,0,4.64211,11.74053s3.03638,3.09884,8.35,8.5214c2.60539,2.76379,6.00488,5.87844,9.88327,9.47279,3.91093,3.558,8.15454,7.761,13.20741,11.87a425.95259,425.95259,0,0,0,35.12193,27.25555q5.02666,3.463,10.20771,7.03143c3.51874,2.26933,7.14139,4.4752,10.76544,6.74,7.18054,4.646,14.84078,8.75006,22.43017,12.97345a433.29826,433.29826,0,0,0,88.4297,35.71989c6.29768,1.67106,12.05675,3.26508,17.195,4.53182,5.17515,1.11123,9.68626,2.07978,13.40227,2.87747,7.41695,1.673,11.72,2.26542,11.72,2.26542A15.66029,15.66029,0,0,0,449.7123,933.189Q449.77757,932.87632,449.83,932.56126Z" transform="translate(-64 -64.69146)"/></svg>