<?xml version="1.0" encoding="iso-8859-1"?>
<!-- Generator: Adobe Illustrator 19.0.0, SVG Export Plug-In . SVG Version: 6.00 Build 0)  -->
<svg version="1.1" id="Capa_1" xmlns="http://www.w3.org/2000/svg" xmlns:xlink="http://www.w3.org/1999/xlink" x="0px" y="0px"
	 viewBox="0 0 512 512" style="enable-background:new 0 0 512 512;" xml:space="preserve">
<g>
	<g>
		<path d="M436.896,414.24c-6.24-6.24-16.352-6.208-22.624,0.032c-6.528,6.528-13.664,12.768-21.056,18.4
			c-7.072,5.344-8.448,15.36-3.104,22.4c3.168,4.16,7.936,6.336,12.736,6.336c3.36,0,6.784-1.056,9.664-3.264
			c8.48-6.4,16.672-13.568,24.384-21.28C443.136,430.624,443.136,420.48,436.896,414.24z"/>
	</g>
</g>
<g>
	<g>
		<path d="M121.856,56.896c-5.344-7.072-15.392-8.416-22.4-3.072c-8.608,6.528-16.8,13.664-24.384,21.28
			c-6.24,6.24-6.24,16.384,0.032,22.624c3.136,3.104,7.2,4.672,11.296,4.672s8.192-1.568,11.328-4.704
			c6.528-6.528,13.664-12.768,21.056-18.4C125.824,73.952,127.2,63.936,121.856,56.896z"/>
	</g>
</g>
<g>
	<g>
		<path d="M391.712,369.088c-6.208-6.24-16.416-6.112-22.624,0.128c-3.168,3.2-6.656,6.4-10.432,9.568
			c-6.752,5.728-7.616,15.808-1.952,22.56c3.2,3.744,7.68,5.696,12.256,5.696c3.648,0,7.328-1.248,10.304-3.744
			c4.544-3.84,8.704-7.68,12.576-11.552C398.048,385.472,397.984,375.328,391.712,369.088z"/>
	</g>
</g>
<g>
	<g>
		<path d="M155.296,110.592c-5.728-6.72-15.808-7.552-22.592-1.856c-4.512,3.84-8.672,7.648-12.48,11.424
			c-6.24,6.24-6.272,16.384-0.064,22.624c3.136,3.168,7.232,4.736,11.36,4.736c4.064,0,8.16-1.536,11.296-4.672
			c3.264-3.232,6.752-6.464,10.592-9.696C160.128,127.424,160.992,117.344,155.296,110.592z"/>
	</g>
</g>
<g>
	<g>
		<path d="M493.312,160.288c-12.64-31.904-31.552-60.576-56.288-85.312c-16.096-16.064-33.984-29.408-53.152-40.448
			c-2.784-1.632-5.472-3.392-8.32-4.896c-1.344-0.704-2.752-1.248-4.096-1.952C336.064,9.728,296.8,0,256,0
			c-39.68,0-77.728,8.96-113.088,26.656c-7.904,3.936-11.104,13.536-7.136,21.44s13.536,11.104,21.472,7.168
			C188.096,39.84,221.344,32,256,32c24.768,0,48.864,4.224,71.68,11.968c-2.176,11.136-5.12,21.504-8.992,30.848
			c-46.144-15.968-97.024-13.92-141.248,5.952c-8.064,3.616-11.648,13.088-8.032,21.152c2.656,5.92,8.512,9.44,14.592,9.44
			c2.176,0,4.416-0.448,6.56-1.408c35.04-15.744,75.008-17.344,112-6.016c-41.248,57.28-112.608,67.808-116.576,68.352
			c-7.136,0.96-12.8,6.624-13.728,13.792c-0.16,1.28-18.368,129.056-140.64,143.936c-4.896,0.608-9.28,3.424-11.808,7.68
			c-2.528,4.256-2.944,9.472-1.12,14.048c12.576,31.84,31.52,60.544,56.288,85.312c16.192,16.192,34.272,29.664,53.664,40.736
			c2.592,1.504,5.088,3.136,7.744,4.544c1.44,0.768,2.976,1.376,4.448,2.112C176.16,502.336,215.328,512,256,512
			c39.648,0,77.696-8.96,113.056-26.656c7.904-3.968,11.104-13.568,7.168-21.472c-3.968-7.904-13.536-11.168-21.472-7.168
			C323.84,472.16,290.624,480,256,480c-24.768,0-48.832-4.224-71.648-11.968c2.176-11.136,5.088-21.472,8.96-30.784
			C213.536,444.288,234.528,448,256,448c27.36,0,53.824-5.664,78.56-16.768c8.064-3.616,11.648-13.088,8.032-21.152
			c-3.616-8.096-13.152-11.712-21.152-8.032c-35.008,15.776-74.944,17.408-112,6.08c41.216-57.28,112.576-67.84,116.544-68.384
			c7.168-0.96,12.8-6.592,13.76-13.76c0.16-1.312,18.336-129.056,140.64-143.904c4.896-0.608,9.28-3.456,11.808-7.712
			C494.72,170.08,495.136,164.896,493.312,160.288z M289.952,289.952c-9.376,9.344-21.664,14.016-33.952,14.016
			c-12.288,0-24.576-4.672-33.952-14.016c-18.72-18.72-18.72-49.152,0-67.872c18.72-18.72,49.152-18.72,67.872,0
			C308.64,240.8,308.672,271.232,289.952,289.952z"/>
	</g>
</g>
<g>
</g>
<g>
</g>
<g>
</g>
<g>
</g>
<g>
</g>
<g>
</g>
<g>
</g>
<g>
</g>
<g>
</g>
<g>
</g>
<g>
</g>
<g>
</g>
<g>
</g>
<g>
</g>
<g>
</g>
</svg>
